<svg xmlns="http://www.w3.org/2000/svg" viewBox="0 0 1200 600">
                  <rect width="1200" height="600" fill="#0F0A1A" />
                  <defs>
                    <linearGradient id="bgGradient" x1="0%" y1="0%" x2="100%" y2="100%">
                      <stop offset="0%" stopColor="#1A0F30" />
                      <stop offset="100%" stopColor="#0A0515" />
                    </linearGradient>
                    <linearGradient id="purpleGlow" x1="0%" y1="0%" x2="100%" y2="100%">
                      <stop offset="0%" stopColor="#CE5AFF" />
                      <stop offset="100%" stopColor="#7B2EBC" />
                    </linearGradient>
                    <filter id="glow" x="-20%" y="-20%" width="140%" height="140%">
                      <feGaussianBlur stdDeviation="8" result="blur" />
                      <feComposite in="SourceGraphic" in2="blur" operator="over" />
                    </filter>
                  </defs>

                  <rect x="0" y="0" width="1200" height="600" fill="url(#bgGradient)" />

                  <g stroke="#5928AB" strokeWidth="0.5" opacity="0.3">
                    <line x1="0" y1="100" x2="1200" y2="100" />
                    <line x1="0" y1="200" x2="1200" y2="200" />
                    <line x1="0" y1="300" x2="1200" y2="300" />
                    <line x1="0" y1="400" x2="1200" y2="400" />
                    <line x1="0" y1="500" x2="1200" y2="500" />

                    <line x1="200" y1="0" x2="200" y2="600" />
                    <line x1="400" y1="0" x2="400" y2="600" />
                    <line x1="600" y1="0" x2="600" y2="600" />
                    <line x1="800" y1="0" x2="800" y2="600" />
                    <line x1="1000" y1="0" x2="1000" y2="600" />
                  </g>

                  <g fill="none" stroke="#B366FF" strokeWidth="2" opacity="0.6">
                    <path d="M100,450 L150,450 L150,400 L250,400 L250,330 L350,330" />
                    <path d="M600,150 L700,150 L700,250 L800,250 L800,350" />
                    <path d="M400,500 L450,500 L450,400 L550,400 L550,300" />
                    <path d="M900,200 L950,200 L950,300 L1050,300" />
                  </g>

                  <g fill="#CE5AFF">
                    <circle cx="150" cy="450" r="5" filter="url(#glow)" />
                    <circle cx="250" cy="400" r="5" filter="url(#glow)" />
                    <circle cx="350" cy="330" r="5" filter="url(#glow)" />
                    <circle cx="700" cy="150" r="5" filter="url(#glow)" />
                    <circle cx="800" cy="250" r="5" filter="url(#glow)" />
                    <circle cx="450" cy="500" r="5" filter="url(#glow)" />
                    <circle cx="550" cy="400" r="5" filter="url(#glow)" />
                    <circle cx="950" cy="200" r="5" filter="url(#glow)" />
                    <circle cx="1050" cy="300" r="5" filter="url(#glow)" />
                  </g>

                  <g opacity="0.8">
                    <polygon points="200,180 240,150 240,210" fill="#8A2BE2" filter="url(#glow)" />
                    <rect x="900" y="350" width="40" height="40" fill="#B366FF" filter="url(#glow)" />
                    <polygon points="380,450 430,480 380,510" fill="#CE5AFF" filter="url(#glow)" />
                  </g>

                  <polygon points="600,250 650,275 650,325 600,350 550,325 550,275" fill="none"
                    stroke="url(#purpleGlow)" strokeWidth="4" filter="url(#glow)" />

                  <g fontFamily="monospace" fontSize="80" fill="#CE5AFF" filter="url(#glow)">
                    <text x="480" y="320" opacity="0.9">{ }</text>
                    <text x="650" y="320" opacity="0.9">()</text>
                    <text x="380" y="320" opacity="0.7">[]</text>
                  </g>

                  <g fontFamily="monospace" fontSize="14" fill="#9966FF" opacity="0.7">
                    <text x="300" y="200">function()</text>
                    <text x="750" y="420">const dev = { }</text>
                    <text x="850" y="180">.then()</text>
                    <text x="200" y="350">import { }</text>
                    <text x="500" y="480">async/await</text>
                    <text x="900" y="250">&lt;/&gt;</text>
                  </g>

                  <circle cx="600" cy="300" r="150" fill="none" stroke="#CE5AFF" strokeWidth="2" opacity="0.2" />
                  <circle cx="600" cy="300" r="180" fill="none" stroke="#CE5AFF" strokeWidth="1.5" opacity="0.15" />
                  <circle cx="600" cy="300" r="210" fill="none" stroke="#CE5AFF" strokeWidth="1" opacity="0.1" />
                </svg>